<?xml version="1.0" standalone="no"?><!DOCTYPE svg PUBLIC "-//W3C//DTD SVG 1.1//EN" "http://www.w3.org/Graphics/SVG/1.1/DTD/svg11.dtd"><svg t="1712632650550" class="icon" viewBox="0 0 1024 1024" version="1.1" xmlns="http://www.w3.org/2000/svg" p-id="963" xmlns:xlink="http://www.w3.org/1999/xlink" width="200" height="200"><path d="M481.834667 796.032L241.365333 555.52A191.36 191.36 0 0 1 512 284.928a191.36 191.36 0 0 1 270.634667 270.634667l-240.469334 240.469333a42.666667 42.666667 0 0 1-60.330666 0z" fill="#FFD3D3" p-id="964"></path><path d="M674.858667 230.826667l1.706666 7.68a298.666667 298.666667 0 0 1-423.808 328.576l-11.392-11.52A191.36 191.36 0 0 1 512 284.928a191.104 191.104 0 0 1 162.858667-54.101333z" fill="#FEDBDB" p-id="965"></path><path d="M512 284.928c11.733333-11.733333 24.576-21.589333 38.229333-29.653333a213.333333 213.333333 0 0 1-363.221333 190.634666A191.36 191.36 0 0 1 512 284.885333z" fill="#FFE6E6" p-id="966"></path><path d="M782.634667 284.928a191.36 191.36 0 0 1 0 270.634667l-240.469334 240.469333a42.666667 42.666667 0 0 1-60.330666 0L241.365333 555.52A191.36 191.36 0 0 1 512 284.928a191.36 191.36 0 0 1 270.634667 0z m-240.469334 30.165333L512 345.258667l-30.165333-30.165334a148.693333 148.693333 0 1 0-210.304 210.304L512 765.866667l240.469333-240.469334a148.693333 148.693333 0 0 0-210.304-210.346666z" fill="#333333" p-id="967"></path></svg>